<mxfile host="Electron" modified="2023-05-22T20:23:04.188Z" agent="Mozilla/5.0 (Windows NT 10.0; Win64; x64) AppleWebKit/537.36 (KHTML, like Gecko) draw.io/21.2.8 Chrome/112.0.5615.165 Electron/24.2.0 Safari/537.36" etag="_v625BGfnFva-XywDlym" version="21.2.8" type="device">
  <diagram name="Page-1" id="Inq1Hw6wfs_KIvEQWjql">
    <mxGraphModel dx="186" dy="606" grid="1" gridSize="10" guides="1" tooltips="1" connect="1" arrows="1" fold="1" page="1" pageScale="1" pageWidth="850" pageHeight="1100" math="0" shadow="0">
      <root>
        <mxCell id="0" />
        <mxCell id="1" parent="0" />
        <mxCell id="gyXMwO3ofP4Fgjw1sUbA-225" value="" style="group;fontFamily=Times New Roman;fontSize=25;fillColor=default;container=0;" parent="1" vertex="1" connectable="0">
          <mxGeometry x="850" width="610" height="629" as="geometry" />
        </mxCell>
        <mxCell id="gyXMwO3ofP4Fgjw1sUbA-120" value="&lt;font style=&quot;&quot;&gt;&lt;i style=&quot;font-size: 25px;&quot;&gt;x&lt;/i&gt;&lt;sub style=&quot;&quot;&gt;&lt;font style=&quot;font-size: 20px;&quot;&gt;4&lt;/font&gt;&lt;/sub&gt;&lt;/font&gt;" style="text;html=1;strokeColor=none;fillColor=none;align=center;verticalAlign=middle;whiteSpace=wrap;rounded=0;fontFamily=Times New Roman;fontSize=25;" parent="1" vertex="1">
          <mxGeometry x="1085" y="599" width="30" height="30" as="geometry" />
        </mxCell>
        <mxCell id="gyXMwO3ofP4Fgjw1sUbA-122" value="&lt;font style=&quot;&quot;&gt;&lt;span style=&quot;font-size: 25px; font-style: italic;&quot;&gt;x&lt;/span&gt;&lt;sub style=&quot;&quot;&gt;&lt;font style=&quot;font-size: 20px;&quot;&gt;3&lt;/font&gt;&lt;/sub&gt;&lt;/font&gt;" style="text;html=1;strokeColor=none;fillColor=none;align=center;verticalAlign=middle;whiteSpace=wrap;rounded=0;fontFamily=Times New Roman;fontSize=25;" parent="1" vertex="1">
          <mxGeometry x="975" y="599" width="30" height="30" as="geometry" />
        </mxCell>
        <mxCell id="gyXMwO3ofP4Fgjw1sUbA-121" value="" style="edgeStyle=orthogonalEdgeStyle;rounded=0;orthogonalLoop=1;jettySize=auto;html=1;fontFamily=Times New Roman;fontSize=25;" parent="1" source="gyXMwO3ofP4Fgjw1sUbA-122" edge="1">
          <mxGeometry relative="1" as="geometry">
            <mxPoint x="990" y="569" as="targetPoint" />
          </mxGeometry>
        </mxCell>
        <mxCell id="gyXMwO3ofP4Fgjw1sUbA-126" value="" style="group;fontFamily=Times New Roman;fontSize=25;fontColor=#FFFFFF;" parent="1" vertex="1" connectable="0">
          <mxGeometry x="1060" y="489" width="80" height="80" as="geometry" />
        </mxCell>
        <mxCell id="gyXMwO3ofP4Fgjw1sUbA-127" value="" style="ellipse;whiteSpace=wrap;html=1;aspect=fixed;fontFamily=Times New Roman;fontSize=25;fontColor=#FFFFFF;" parent="gyXMwO3ofP4Fgjw1sUbA-126" vertex="1">
          <mxGeometry width="80" height="80" as="geometry" />
        </mxCell>
        <mxCell id="gyXMwO3ofP4Fgjw1sUbA-128" value="" style="endArrow=none;html=1;rounded=0;edgeStyle=orthogonalEdgeStyle;curved=1;fontFamily=Times New Roman;fontSize=25;fontColor=#FFFFFF;" parent="gyXMwO3ofP4Fgjw1sUbA-126" edge="1">
          <mxGeometry width="50" height="50" relative="1" as="geometry">
            <mxPoint x="55" y="55" as="sourcePoint" />
            <mxPoint x="25" y="55" as="targetPoint" />
            <Array as="points">
              <mxPoint x="45" y="55" />
              <mxPoint x="45" y="25" />
              <mxPoint x="35" y="25" />
              <mxPoint x="35" y="55" />
            </Array>
          </mxGeometry>
        </mxCell>
        <mxCell id="gyXMwO3ofP4Fgjw1sUbA-119" value="" style="edgeStyle=orthogonalEdgeStyle;rounded=0;orthogonalLoop=1;jettySize=auto;html=1;fontFamily=Times New Roman;fontSize=25;" parent="1" source="gyXMwO3ofP4Fgjw1sUbA-120" target="gyXMwO3ofP4Fgjw1sUbA-127" edge="1">
          <mxGeometry relative="1" as="geometry" />
        </mxCell>
        <mxCell id="gyXMwO3ofP4Fgjw1sUbA-132" value="" style="shape=sumEllipse;perimeter=ellipsePerimeter;whiteSpace=wrap;html=1;backgroundOutline=1;fontFamily=Times New Roman;fontSize=25;fontColor=#FFFFFF;" parent="1" vertex="1">
          <mxGeometry x="950" y="369" width="80" height="80" as="geometry" />
        </mxCell>
        <mxCell id="gyXMwO3ofP4Fgjw1sUbA-134" value="&lt;font style=&quot;&quot;&gt;&lt;i style=&quot;font-size: 25px;&quot;&gt;x&lt;/i&gt;&lt;sub style=&quot;&quot;&gt;&lt;font style=&quot;font-size: 20px;&quot;&gt;4&lt;/font&gt;&lt;/sub&gt;&lt;/font&gt;" style="text;html=1;strokeColor=none;fillColor=none;align=center;verticalAlign=middle;whiteSpace=wrap;rounded=0;fontFamily=Times New Roman;fontSize=25;" parent="1" vertex="1">
          <mxGeometry x="1305" y="599" width="30" height="30" as="geometry" />
        </mxCell>
        <mxCell id="gyXMwO3ofP4Fgjw1sUbA-136" value="&lt;font style=&quot;&quot;&gt;&lt;i style=&quot;font-size: 25px;&quot;&gt;x&lt;/i&gt;&lt;sub style=&quot;&quot;&gt;&lt;font style=&quot;font-size: 20px;&quot;&gt;3&lt;/font&gt;&lt;/sub&gt;&lt;/font&gt;" style="text;html=1;strokeColor=none;fillColor=none;align=center;verticalAlign=middle;whiteSpace=wrap;rounded=0;fontFamily=Times New Roman;fontSize=25;" parent="1" vertex="1">
          <mxGeometry x="1195" y="599" width="30" height="30" as="geometry" />
        </mxCell>
        <mxCell id="gyXMwO3ofP4Fgjw1sUbA-135" value="" style="edgeStyle=orthogonalEdgeStyle;rounded=0;orthogonalLoop=1;jettySize=auto;html=1;fontFamily=Times New Roman;fontSize=25;" parent="1" source="gyXMwO3ofP4Fgjw1sUbA-136" edge="1">
          <mxGeometry relative="1" as="geometry">
            <mxPoint x="1210" y="569" as="targetPoint" />
          </mxGeometry>
        </mxCell>
        <mxCell id="gyXMwO3ofP4Fgjw1sUbA-140" value="" style="group;fontFamily=Times New Roman;fontSize=25;fontColor=#FFFFFF;" parent="1" vertex="1" connectable="0">
          <mxGeometry x="1280" y="489" width="80" height="80" as="geometry" />
        </mxCell>
        <mxCell id="gyXMwO3ofP4Fgjw1sUbA-141" value="" style="ellipse;whiteSpace=wrap;html=1;aspect=fixed;fontFamily=Times New Roman;fontSize=25;fontColor=#FFFFFF;" parent="gyXMwO3ofP4Fgjw1sUbA-140" vertex="1">
          <mxGeometry width="80" height="80" as="geometry" />
        </mxCell>
        <mxCell id="gyXMwO3ofP4Fgjw1sUbA-142" value="" style="endArrow=none;html=1;rounded=0;edgeStyle=orthogonalEdgeStyle;curved=1;fontFamily=Times New Roman;fontSize=25;fontColor=#FFFFFF;" parent="gyXMwO3ofP4Fgjw1sUbA-140" edge="1">
          <mxGeometry width="50" height="50" relative="1" as="geometry">
            <mxPoint x="55" y="55" as="sourcePoint" />
            <mxPoint x="25" y="55" as="targetPoint" />
            <Array as="points">
              <mxPoint x="45" y="55" />
              <mxPoint x="45" y="25" />
              <mxPoint x="35" y="25" />
              <mxPoint x="35" y="55" />
            </Array>
          </mxGeometry>
        </mxCell>
        <mxCell id="gyXMwO3ofP4Fgjw1sUbA-146" value="" style="shape=sumEllipse;perimeter=ellipsePerimeter;whiteSpace=wrap;html=1;backgroundOutline=1;fontFamily=Times New Roman;fontSize=25;fontColor=#FFFFFF;" parent="1" vertex="1">
          <mxGeometry x="1280" y="369" width="80" height="80" as="geometry" />
        </mxCell>
        <mxCell id="gyXMwO3ofP4Fgjw1sUbA-133" value="" style="edgeStyle=orthogonalEdgeStyle;rounded=0;orthogonalLoop=1;jettySize=auto;html=1;fontFamily=Times New Roman;fontSize=25;" parent="1" source="gyXMwO3ofP4Fgjw1sUbA-134" target="gyXMwO3ofP4Fgjw1sUbA-141" edge="1">
          <mxGeometry relative="1" as="geometry" />
        </mxCell>
        <mxCell id="gyXMwO3ofP4Fgjw1sUbA-147" value="" style="shape=orEllipse;perimeter=ellipsePerimeter;whiteSpace=wrap;html=1;backgroundOutline=1;fontFamily=Times New Roman;fontSize=25;fontColor=#FFFFFF;" parent="1" vertex="1">
          <mxGeometry x="1060" y="249" width="80" height="80" as="geometry" />
        </mxCell>
        <mxCell id="gyXMwO3ofP4Fgjw1sUbA-151" value="" style="edgeStyle=orthogonalEdgeStyle;rounded=0;orthogonalLoop=1;jettySize=auto;html=1;fontFamily=Times New Roman;fontSize=25;fontColor=#FFFFFF;" parent="1" source="gyXMwO3ofP4Fgjw1sUbA-148" target="gyXMwO3ofP4Fgjw1sUbA-147" edge="1">
          <mxGeometry relative="1" as="geometry" />
        </mxCell>
        <mxCell id="gyXMwO3ofP4Fgjw1sUbA-148" value="" style="shape=sumEllipse;perimeter=ellipsePerimeter;whiteSpace=wrap;html=1;backgroundOutline=1;fontFamily=Times New Roman;fontSize=25;fontColor=#FFFFFF;" parent="1" vertex="1">
          <mxGeometry x="1060" y="369" width="80" height="80" as="geometry" />
        </mxCell>
        <mxCell id="gyXMwO3ofP4Fgjw1sUbA-149" value="" style="shape=sumEllipse;perimeter=ellipsePerimeter;whiteSpace=wrap;html=1;backgroundOutline=1;fontFamily=Times New Roman;fontSize=25;fontColor=#FFFFFF;" parent="1" vertex="1">
          <mxGeometry x="1170" y="369" width="80" height="80" as="geometry" />
        </mxCell>
        <mxCell id="gyXMwO3ofP4Fgjw1sUbA-150" value="" style="shape=orEllipse;perimeter=ellipsePerimeter;whiteSpace=wrap;html=1;backgroundOutline=1;fontFamily=Times New Roman;fontSize=25;fontColor=#FFFFFF;" parent="1" vertex="1">
          <mxGeometry x="1170" y="249" width="80" height="80" as="geometry" />
        </mxCell>
        <mxCell id="gyXMwO3ofP4Fgjw1sUbA-131" value="" style="rounded=0;orthogonalLoop=1;jettySize=auto;html=1;entryX=0;entryY=1;entryDx=0;entryDy=0;fontFamily=Times New Roman;fontSize=25;fontColor=#FFFFFF;" parent="1" source="gyXMwO3ofP4Fgjw1sUbA-132" target="gyXMwO3ofP4Fgjw1sUbA-147" edge="1">
          <mxGeometry relative="1" as="geometry">
            <mxPoint x="1050" y="249" as="targetPoint" />
          </mxGeometry>
        </mxCell>
        <mxCell id="gyXMwO3ofP4Fgjw1sUbA-155" value="" style="edgeStyle=orthogonalEdgeStyle;rounded=0;orthogonalLoop=1;jettySize=auto;html=1;fontFamily=Times New Roman;fontSize=25;fontColor=#FFFFFF;" parent="1" source="gyXMwO3ofP4Fgjw1sUbA-141" target="gyXMwO3ofP4Fgjw1sUbA-146" edge="1">
          <mxGeometry relative="1" as="geometry" />
        </mxCell>
        <mxCell id="gyXMwO3ofP4Fgjw1sUbA-156" value="" style="edgeStyle=orthogonalEdgeStyle;rounded=0;orthogonalLoop=1;jettySize=auto;html=1;fontFamily=Times New Roman;fontSize=25;fontColor=#FFFFFF;" parent="1" target="gyXMwO3ofP4Fgjw1sUbA-132" edge="1">
          <mxGeometry relative="1" as="geometry">
            <mxPoint x="990" y="489" as="sourcePoint" />
          </mxGeometry>
        </mxCell>
        <mxCell id="gyXMwO3ofP4Fgjw1sUbA-157" value="" style="rounded=0;orthogonalLoop=1;jettySize=auto;html=1;entryX=1;entryY=1;entryDx=0;entryDy=0;fontFamily=Times New Roman;fontSize=25;fontColor=#FFFFFF;" parent="1" source="gyXMwO3ofP4Fgjw1sUbA-127" target="gyXMwO3ofP4Fgjw1sUbA-132" edge="1">
          <mxGeometry relative="1" as="geometry" />
        </mxCell>
        <mxCell id="gyXMwO3ofP4Fgjw1sUbA-158" value="" style="edgeStyle=orthogonalEdgeStyle;rounded=0;orthogonalLoop=1;jettySize=auto;html=1;fontFamily=Times New Roman;fontSize=25;fontColor=#FFFFFF;" parent="1" source="gyXMwO3ofP4Fgjw1sUbA-127" target="gyXMwO3ofP4Fgjw1sUbA-148" edge="1">
          <mxGeometry relative="1" as="geometry" />
        </mxCell>
        <mxCell id="gyXMwO3ofP4Fgjw1sUbA-154" value="" style="rounded=0;orthogonalLoop=1;jettySize=auto;html=1;entryX=1;entryY=1;entryDx=0;entryDy=0;fontFamily=Times New Roman;fontSize=25;fontColor=#FFFFFF;" parent="1" source="gyXMwO3ofP4Fgjw1sUbA-146" target="gyXMwO3ofP4Fgjw1sUbA-150" edge="1">
          <mxGeometry relative="1" as="geometry">
            <mxPoint x="1320" y="248.99999999999977" as="targetPoint" />
          </mxGeometry>
        </mxCell>
        <mxCell id="gyXMwO3ofP4Fgjw1sUbA-160" value="" style="rounded=0;orthogonalLoop=1;jettySize=auto;html=1;entryX=0;entryY=1;entryDx=0;entryDy=0;fontFamily=Times New Roman;fontSize=25;fontColor=#FFFFFF;" parent="1" target="gyXMwO3ofP4Fgjw1sUbA-146" edge="1">
          <mxGeometry relative="1" as="geometry">
            <mxPoint x="1236.5949266331975" y="499.12174909109876" as="sourcePoint" />
          </mxGeometry>
        </mxCell>
        <mxCell id="gyXMwO3ofP4Fgjw1sUbA-152" value="" style="edgeStyle=orthogonalEdgeStyle;rounded=0;orthogonalLoop=1;jettySize=auto;html=1;fontFamily=Times New Roman;fontSize=25;fontColor=#FFFFFF;" parent="1" source="gyXMwO3ofP4Fgjw1sUbA-149" target="gyXMwO3ofP4Fgjw1sUbA-150" edge="1">
          <mxGeometry relative="1" as="geometry" />
        </mxCell>
        <mxCell id="gyXMwO3ofP4Fgjw1sUbA-162" value="" style="rounded=0;orthogonalLoop=1;jettySize=auto;html=1;entryX=1;entryY=1;entryDx=0;entryDy=0;fontFamily=Times New Roman;fontSize=25;fontColor=#FFFFFF;" parent="1" source="gyXMwO3ofP4Fgjw1sUbA-141" target="gyXMwO3ofP4Fgjw1sUbA-149" edge="1">
          <mxGeometry relative="1" as="geometry">
            <mxPoint x="1480" y="529" as="targetPoint" />
          </mxGeometry>
        </mxCell>
        <mxCell id="gyXMwO3ofP4Fgjw1sUbA-164" value="" style="rounded=0;orthogonalLoop=1;jettySize=auto;html=1;entryX=0;entryY=1;entryDx=0;entryDy=0;fontFamily=Times New Roman;fontSize=25;fontColor=#FFFFFF;" parent="1" target="gyXMwO3ofP4Fgjw1sUbA-149" edge="1">
          <mxGeometry relative="1" as="geometry">
            <mxPoint x="830" y="529" as="targetPoint" />
            <mxPoint x="1026.1109253227057" y="511.79531830174756" as="sourcePoint" />
          </mxGeometry>
        </mxCell>
        <mxCell id="gyXMwO3ofP4Fgjw1sUbA-165" value="" style="rounded=0;orthogonalLoop=1;jettySize=auto;html=1;entryX=1;entryY=1;entryDx=0;entryDy=0;fontFamily=Times New Roman;fontSize=25;fontColor=#FFFFFF;" parent="1" target="gyXMwO3ofP4Fgjw1sUbA-148" edge="1">
          <mxGeometry relative="1" as="geometry">
            <mxPoint x="1183.4050733668025" y="499.1217490910992" as="sourcePoint" />
          </mxGeometry>
        </mxCell>
        <mxCell id="gyXMwO3ofP4Fgjw1sUbA-166" value="" style="shape=sumEllipse;perimeter=ellipsePerimeter;whiteSpace=wrap;html=1;backgroundOutline=1;fontFamily=Times New Roman;fontSize=25;fontColor=#FFFFFF;" parent="1" vertex="1">
          <mxGeometry x="1060" y="122" width="80" height="80" as="geometry" />
        </mxCell>
        <mxCell id="gyXMwO3ofP4Fgjw1sUbA-209" value="" style="edgeStyle=orthogonalEdgeStyle;rounded=0;orthogonalLoop=1;jettySize=auto;html=1;fontFamily=Times New Roman;fontSize=25;fontColor=#FFFFFF;" parent="1" source="gyXMwO3ofP4Fgjw1sUbA-147" target="gyXMwO3ofP4Fgjw1sUbA-166" edge="1">
          <mxGeometry relative="1" as="geometry" />
        </mxCell>
        <mxCell id="gyXMwO3ofP4Fgjw1sUbA-167" value="" style="shape=sumEllipse;perimeter=ellipsePerimeter;whiteSpace=wrap;html=1;backgroundOutline=1;fontFamily=Times New Roman;fontSize=25;fontColor=#FFFFFF;" parent="1" vertex="1">
          <mxGeometry x="1170" y="122" width="80" height="80" as="geometry" />
        </mxCell>
        <mxCell id="gyXMwO3ofP4Fgjw1sUbA-210" value="" style="edgeStyle=orthogonalEdgeStyle;rounded=0;orthogonalLoop=1;jettySize=auto;html=1;fontFamily=Times New Roman;fontSize=25;fontColor=#FFFFFF;" parent="1" source="gyXMwO3ofP4Fgjw1sUbA-150" target="gyXMwO3ofP4Fgjw1sUbA-167" edge="1">
          <mxGeometry relative="1" as="geometry" />
        </mxCell>
        <mxCell id="gyXMwO3ofP4Fgjw1sUbA-175" value="" style="group;fontFamily=Times New Roman;fontSize=25;fontColor=#FFFFFF;" parent="1" vertex="1" connectable="0">
          <mxGeometry x="1312" y="249" width="80" height="80" as="geometry" />
        </mxCell>
        <mxCell id="gyXMwO3ofP4Fgjw1sUbA-176" value="" style="ellipse;whiteSpace=wrap;html=1;aspect=fixed;fontFamily=Times New Roman;fontSize=25;fontColor=#FFFFFF;" parent="gyXMwO3ofP4Fgjw1sUbA-175" vertex="1">
          <mxGeometry width="80" height="80" as="geometry" />
        </mxCell>
        <mxCell id="gyXMwO3ofP4Fgjw1sUbA-177" value="" style="endArrow=none;html=1;rounded=0;edgeStyle=orthogonalEdgeStyle;curved=1;fontFamily=Times New Roman;fontSize=25;fontColor=#FFFFFF;" parent="gyXMwO3ofP4Fgjw1sUbA-175" edge="1">
          <mxGeometry width="50" height="50" relative="1" as="geometry">
            <mxPoint x="55" y="55" as="sourcePoint" />
            <mxPoint x="25" y="55" as="targetPoint" />
            <Array as="points">
              <mxPoint x="45" y="55" />
              <mxPoint x="45" y="25" />
              <mxPoint x="35" y="25" />
              <mxPoint x="35" y="55" />
            </Array>
          </mxGeometry>
        </mxCell>
        <mxCell id="gyXMwO3ofP4Fgjw1sUbA-200" value="" style="group;fontFamily=Times New Roman;fontSize=25;fontColor=#FFFFFF;" parent="1" vertex="1" connectable="0">
          <mxGeometry x="920" y="249" width="80" height="80" as="geometry" />
        </mxCell>
        <mxCell id="gyXMwO3ofP4Fgjw1sUbA-201" value="" style="ellipse;whiteSpace=wrap;html=1;aspect=fixed;fontFamily=Times New Roman;fontSize=25;fontColor=#FFFFFF;" parent="gyXMwO3ofP4Fgjw1sUbA-200" vertex="1">
          <mxGeometry width="80" height="80" as="geometry" />
        </mxCell>
        <mxCell id="gyXMwO3ofP4Fgjw1sUbA-202" value="" style="endArrow=none;html=1;rounded=0;edgeStyle=orthogonalEdgeStyle;curved=1;fontFamily=Times New Roman;fontSize=25;fontColor=#FFFFFF;" parent="gyXMwO3ofP4Fgjw1sUbA-200" edge="1">
          <mxGeometry width="50" height="50" relative="1" as="geometry">
            <mxPoint x="55" y="55" as="sourcePoint" />
            <mxPoint x="25" y="55" as="targetPoint" />
            <Array as="points">
              <mxPoint x="45" y="55" />
              <mxPoint x="45" y="25" />
              <mxPoint x="35" y="25" />
              <mxPoint x="35" y="55" />
            </Array>
          </mxGeometry>
        </mxCell>
        <mxCell id="gyXMwO3ofP4Fgjw1sUbA-206" value="" style="shape=orEllipse;perimeter=ellipsePerimeter;whiteSpace=wrap;html=1;backgroundOutline=1;fontFamily=Times New Roman;fontSize=25;fontColor=#FFFFFF;" parent="1" vertex="1">
          <mxGeometry x="1115" width="80" height="80" as="geometry" />
        </mxCell>
        <mxCell id="gyXMwO3ofP4Fgjw1sUbA-211" value="" style="rounded=0;orthogonalLoop=1;jettySize=auto;html=1;entryX=1;entryY=1;entryDx=0;entryDy=0;fontFamily=Times New Roman;fontSize=25;fontColor=#FFFFFF;" parent="1" source="gyXMwO3ofP4Fgjw1sUbA-176" target="gyXMwO3ofP4Fgjw1sUbA-167" edge="1">
          <mxGeometry relative="1" as="geometry" />
        </mxCell>
        <mxCell id="gyXMwO3ofP4Fgjw1sUbA-212" value="" style="edgeStyle=orthogonalEdgeStyle;rounded=0;orthogonalLoop=1;jettySize=auto;html=1;fontFamily=Times New Roman;fontSize=25;fontColor=#FFFFFF;" parent="1" target="gyXMwO3ofP4Fgjw1sUbA-167" edge="1">
          <mxGeometry relative="1" as="geometry">
            <mxPoint x="1312" y="162" as="sourcePoint" />
          </mxGeometry>
        </mxCell>
        <mxCell id="gyXMwO3ofP4Fgjw1sUbA-213" value="" style="rounded=0;orthogonalLoop=1;jettySize=auto;html=1;entryX=0;entryY=1;entryDx=0;entryDy=0;fontFamily=Times New Roman;fontSize=25;fontColor=#FFFFFF;" parent="1" source="gyXMwO3ofP4Fgjw1sUbA-201" target="gyXMwO3ofP4Fgjw1sUbA-166" edge="1">
          <mxGeometry relative="1" as="geometry" />
        </mxCell>
        <mxCell id="gyXMwO3ofP4Fgjw1sUbA-207" value="" style="rounded=0;orthogonalLoop=1;jettySize=auto;html=1;fontFamily=Times New Roman;fontSize=25;fontColor=#FFFFFF;" parent="1" source="gyXMwO3ofP4Fgjw1sUbA-166" target="gyXMwO3ofP4Fgjw1sUbA-206" edge="1">
          <mxGeometry relative="1" as="geometry" />
        </mxCell>
        <mxCell id="gyXMwO3ofP4Fgjw1sUbA-214" value="" style="edgeStyle=orthogonalEdgeStyle;rounded=0;orthogonalLoop=1;jettySize=auto;html=1;fontFamily=Times New Roman;fontSize=25;fontColor=#FFFFFF;" parent="1" target="gyXMwO3ofP4Fgjw1sUbA-166" edge="1">
          <mxGeometry relative="1" as="geometry">
            <mxPoint x="1000" y="162" as="sourcePoint" />
          </mxGeometry>
        </mxCell>
        <mxCell id="gyXMwO3ofP4Fgjw1sUbA-222" value="" style="edgeStyle=orthogonalEdgeStyle;rounded=0;orthogonalLoop=1;jettySize=auto;html=1;fontFamily=Times New Roman;fontSize=25;" parent="1" source="gyXMwO3ofP4Fgjw1sUbA-215" target="gyXMwO3ofP4Fgjw1sUbA-201" edge="1">
          <mxGeometry relative="1" as="geometry" />
        </mxCell>
        <mxCell id="gyXMwO3ofP4Fgjw1sUbA-215" value="&lt;font style=&quot;&quot;&gt;&lt;i style=&quot;font-size: 25px;&quot;&gt;x&lt;/i&gt;&lt;sub style=&quot;&quot;&gt;&lt;font style=&quot;font-size: 20px;&quot;&gt;2&lt;/font&gt;&lt;/sub&gt;&lt;/font&gt;" style="text;html=1;strokeColor=none;fillColor=none;align=center;verticalAlign=middle;whiteSpace=wrap;rounded=0;fontFamily=Times New Roman;fontSize=25;" parent="1" vertex="1">
          <mxGeometry x="850" y="274" width="30" height="30" as="geometry" />
        </mxCell>
        <mxCell id="gyXMwO3ofP4Fgjw1sUbA-221" value="" style="edgeStyle=orthogonalEdgeStyle;rounded=0;orthogonalLoop=1;jettySize=auto;html=1;fontFamily=Times New Roman;fontSize=25;" parent="1" source="gyXMwO3ofP4Fgjw1sUbA-216" edge="1">
          <mxGeometry relative="1" as="geometry">
            <mxPoint x="920" y="162" as="targetPoint" />
          </mxGeometry>
        </mxCell>
        <mxCell id="gyXMwO3ofP4Fgjw1sUbA-216" value="&lt;font style=&quot;&quot;&gt;&lt;i style=&quot;font-size: 25px;&quot;&gt;x&lt;/i&gt;&lt;sub style=&quot;&quot;&gt;&lt;font style=&quot;font-size: 20px;&quot;&gt;1&lt;/font&gt;&lt;/sub&gt;&lt;/font&gt;" style="text;html=1;strokeColor=none;fillColor=none;align=center;verticalAlign=middle;whiteSpace=wrap;rounded=0;fontFamily=Times New Roman;fontSize=25;" parent="1" vertex="1">
          <mxGeometry x="850" y="147" width="30" height="30" as="geometry" />
        </mxCell>
        <mxCell id="gyXMwO3ofP4Fgjw1sUbA-224" value="" style="edgeStyle=orthogonalEdgeStyle;rounded=0;orthogonalLoop=1;jettySize=auto;html=1;fontFamily=Times New Roman;fontSize=25;" parent="1" source="gyXMwO3ofP4Fgjw1sUbA-219" target="gyXMwO3ofP4Fgjw1sUbA-176" edge="1">
          <mxGeometry relative="1" as="geometry" />
        </mxCell>
        <mxCell id="gyXMwO3ofP4Fgjw1sUbA-219" value="&lt;font style=&quot;&quot;&gt;&lt;i style=&quot;font-size: 25px;&quot;&gt;x&lt;/i&gt;&lt;sub style=&quot;&quot;&gt;&lt;font style=&quot;font-size: 20px;&quot;&gt;2&lt;/font&gt;&lt;/sub&gt;&lt;/font&gt;" style="text;html=1;strokeColor=none;fillColor=none;align=center;verticalAlign=middle;whiteSpace=wrap;rounded=0;fontFamily=Times New Roman;fontSize=25;" parent="1" vertex="1">
          <mxGeometry x="1430" y="274" width="30" height="30" as="geometry" />
        </mxCell>
        <mxCell id="gyXMwO3ofP4Fgjw1sUbA-223" value="" style="edgeStyle=orthogonalEdgeStyle;rounded=0;orthogonalLoop=1;jettySize=auto;html=1;fontFamily=Times New Roman;fontSize=25;" parent="1" source="gyXMwO3ofP4Fgjw1sUbA-220" edge="1">
          <mxGeometry relative="1" as="geometry">
            <mxPoint x="1392" y="162" as="targetPoint" />
          </mxGeometry>
        </mxCell>
        <mxCell id="gyXMwO3ofP4Fgjw1sUbA-220" value="&lt;font style=&quot;&quot;&gt;&lt;i style=&quot;font-size: 25px;&quot;&gt;x&lt;/i&gt;&lt;sub style=&quot;&quot;&gt;&lt;font style=&quot;font-size: 20px;&quot;&gt;1&lt;/font&gt;&lt;/sub&gt;&lt;/font&gt;" style="text;html=1;strokeColor=none;fillColor=none;align=center;verticalAlign=middle;whiteSpace=wrap;rounded=0;fontFamily=Times New Roman;fontSize=25;" parent="1" vertex="1">
          <mxGeometry x="1430" y="147" width="30" height="30" as="geometry" />
        </mxCell>
        <mxCell id="gyXMwO3ofP4Fgjw1sUbA-208" value="" style="rounded=0;orthogonalLoop=1;jettySize=auto;html=1;fontFamily=Times New Roman;fontSize=25;fontColor=#FFFFFF;" parent="1" source="gyXMwO3ofP4Fgjw1sUbA-167" target="gyXMwO3ofP4Fgjw1sUbA-206" edge="1">
          <mxGeometry relative="1" as="geometry" />
        </mxCell>
        <mxCell id="W4Po7L9avesT6RaKiQiM-1" value="" style="group;fontFamily=Times New Roman;fontSize=25;fontColor=#FFFFFF;" vertex="1" connectable="0" parent="1">
          <mxGeometry x="1312" y="122" width="80" height="80" as="geometry" />
        </mxCell>
        <mxCell id="W4Po7L9avesT6RaKiQiM-2" value="" style="ellipse;whiteSpace=wrap;html=1;aspect=fixed;fontFamily=Times New Roman;fontSize=25;fontColor=#FFFFFF;" vertex="1" parent="W4Po7L9avesT6RaKiQiM-1">
          <mxGeometry width="80" height="80" as="geometry" />
        </mxCell>
        <mxCell id="W4Po7L9avesT6RaKiQiM-3" value="" style="endArrow=none;html=1;rounded=0;edgeStyle=orthogonalEdgeStyle;curved=1;fontFamily=Times New Roman;fontSize=25;fontColor=#FFFFFF;" edge="1" parent="W4Po7L9avesT6RaKiQiM-1">
          <mxGeometry width="50" height="50" relative="1" as="geometry">
            <mxPoint x="55" y="55" as="sourcePoint" />
            <mxPoint x="25" y="55" as="targetPoint" />
            <Array as="points">
              <mxPoint x="45" y="55" />
              <mxPoint x="45" y="25" />
              <mxPoint x="35" y="25" />
              <mxPoint x="35" y="55" />
            </Array>
          </mxGeometry>
        </mxCell>
        <mxCell id="W4Po7L9avesT6RaKiQiM-5" value="" style="group;fontFamily=Times New Roman;fontSize=25;fontColor=#FFFFFF;" vertex="1" connectable="0" parent="1">
          <mxGeometry x="920" y="122" width="80" height="80" as="geometry" />
        </mxCell>
        <mxCell id="W4Po7L9avesT6RaKiQiM-6" value="" style="ellipse;whiteSpace=wrap;html=1;aspect=fixed;fontFamily=Times New Roman;fontSize=25;fontColor=#FFFFFF;" vertex="1" parent="W4Po7L9avesT6RaKiQiM-5">
          <mxGeometry width="80" height="80" as="geometry" />
        </mxCell>
        <mxCell id="W4Po7L9avesT6RaKiQiM-7" value="" style="endArrow=none;html=1;rounded=0;edgeStyle=orthogonalEdgeStyle;curved=1;fontFamily=Times New Roman;fontSize=25;fontColor=#FFFFFF;" edge="1" parent="W4Po7L9avesT6RaKiQiM-5">
          <mxGeometry width="50" height="50" relative="1" as="geometry">
            <mxPoint x="55" y="55" as="sourcePoint" />
            <mxPoint x="25" y="55" as="targetPoint" />
            <Array as="points">
              <mxPoint x="45" y="55" />
              <mxPoint x="45" y="25" />
              <mxPoint x="35" y="25" />
              <mxPoint x="35" y="55" />
            </Array>
          </mxGeometry>
        </mxCell>
        <mxCell id="W4Po7L9avesT6RaKiQiM-8" value="" style="group;fontFamily=Times New Roman;fontSize=25;fontColor=#FFFFFF;" vertex="1" connectable="0" parent="1">
          <mxGeometry x="1170" y="489" width="80" height="80" as="geometry" />
        </mxCell>
        <mxCell id="W4Po7L9avesT6RaKiQiM-9" value="" style="ellipse;whiteSpace=wrap;html=1;aspect=fixed;fontFamily=Times New Roman;fontSize=25;fontColor=#FFFFFF;" vertex="1" parent="W4Po7L9avesT6RaKiQiM-8">
          <mxGeometry width="80" height="80" as="geometry" />
        </mxCell>
        <mxCell id="W4Po7L9avesT6RaKiQiM-10" value="" style="endArrow=none;html=1;rounded=0;edgeStyle=orthogonalEdgeStyle;curved=1;fontFamily=Times New Roman;fontSize=25;fontColor=#FFFFFF;" edge="1" parent="W4Po7L9avesT6RaKiQiM-8">
          <mxGeometry width="50" height="50" relative="1" as="geometry">
            <mxPoint x="55" y="55" as="sourcePoint" />
            <mxPoint x="25" y="55" as="targetPoint" />
            <Array as="points">
              <mxPoint x="45" y="55" />
              <mxPoint x="45" y="25" />
              <mxPoint x="35" y="25" />
              <mxPoint x="35" y="55" />
            </Array>
          </mxGeometry>
        </mxCell>
        <mxCell id="W4Po7L9avesT6RaKiQiM-11" value="" style="group;fontFamily=Times New Roman;fontSize=25;fontColor=#FFFFFF;" vertex="1" connectable="0" parent="1">
          <mxGeometry x="950" y="489" width="80" height="80" as="geometry" />
        </mxCell>
        <mxCell id="W4Po7L9avesT6RaKiQiM-12" value="" style="ellipse;whiteSpace=wrap;html=1;aspect=fixed;fontFamily=Times New Roman;fontSize=25;fontColor=#FFFFFF;" vertex="1" parent="W4Po7L9avesT6RaKiQiM-11">
          <mxGeometry width="80" height="80" as="geometry" />
        </mxCell>
        <mxCell id="W4Po7L9avesT6RaKiQiM-13" value="" style="endArrow=none;html=1;rounded=0;edgeStyle=orthogonalEdgeStyle;curved=1;fontFamily=Times New Roman;fontSize=25;fontColor=#FFFFFF;" edge="1" parent="W4Po7L9avesT6RaKiQiM-11">
          <mxGeometry width="50" height="50" relative="1" as="geometry">
            <mxPoint x="55" y="55" as="sourcePoint" />
            <mxPoint x="25" y="55" as="targetPoint" />
            <Array as="points">
              <mxPoint x="45" y="55" />
              <mxPoint x="45" y="25" />
              <mxPoint x="35" y="25" />
              <mxPoint x="35" y="55" />
            </Array>
          </mxGeometry>
        </mxCell>
      </root>
    </mxGraphModel>
  </diagram>
</mxfile>
